mtllib LeverSwitch.mtl
o Default
v 0 -2 0 1 1 1 1
v 1 -1 0 1 1 1 1
v 0 -1 0 1 1 1 1
v 1 -2 0 1 1 1 1
v -1.1102230246251565e-16 1 -1 1 1 1 1
v 1.1102230246251565e-16 2 0 1 1 1 1
v -1.1102230246251565e-16 2 -1 1 1 1 1
v 1.1102230246251565e-16 1 0 1 1 1 1
v -1.1102230246251565e-16 3 -1 1 1 1 1
v 1.1102230246251565e-16 4 0 1 1 1 1
v -1.1102230246251565e-16 4 -1 1 1 1 1
v 1.1102230246251565e-16 3 0 1 1 1 1
v 1.1102230246251565e-16 5 0 1 1 1 1
v -1.1102230246251565e-16 5 -1 1 1 1 1
v 1.1102230246251565e-16 6 0 1 1 1 1
v -1.1102230246251565e-16 6 -1 1 1 1 1
v 1.1102230246251565e-16 7 0 1 1 1 1
v -1.1102230246251565e-16 7 -1 1 1 1 1
v 1 7 0 1 1 1 1
v 1 6 0 1 1 1 1
v 2 7 0 1 1 1 1
v 2 6 0 1 1 1 1
v 6 6 0 1 1 1 1
v 6 7 -1 1 1 1 1
v 6 7 0 1 1 1 1
v 6 6 -1 1 1 1 1
v 3 7 0 1 1 1 1
v 3 6 0 1 1 1 1
v 4 6 0 1 1 1 1
v 5 7 0 1 1 1 1
v 4 7 0 1 1 1 1
v 5 6 0 1 1 1 1
v 1 2 0 1 1 1 1
v 1 1 0 1 1 1 1
v 1 5 0 1 1 1 1
v 1 4 0 1 1 1 1
v 1 3 0 1 1 1 1
v 0 0 0 1 1 1 1
v 1 0 0 1 1 1 1
v -1.1102230246251565e-16 0 -1 1 1 1 1
v 0 -1 -1 1 1 1 1
v 0 -2 -1 1 1 1 1
v 0 -3 -1 1 1 1 1
v 0 -3 0 1 1 1 1
v 1 -3 0 1 1 1 1
v 1 -3 -1 1 1 1 1
v 1 -2 -1 1 1 1 1
v 1 -1 -1 1 1 1 1
v 1 0 -1 1 1 1 1
v 1 1 -1 1 1 1 1
v 1 2 -1 1 1 1 1
v 1 3 -1 1 1 1 1
v 1 4 -1 1 1 1 1
v 1 5 -1 1 1 1 1
v 1 6 -1 1 1 1 1
v 1 7 -1 1 1 1 1
v 2 6 -1 1 1 1 1
v 2 7 -1 1 1 1 1
v 4 6 -1 1 1 1 1
v 3 7 -1 1 1 1 1
v 4 7 -1 1 1 1 1
v 3 6 -1 1 1 1 1
v 7 6 -1 1 1 1 1
v 7 7 -1 1 1 1 1
v 5 7 -1 1 1 1 1
v 5 6 -1 1 1 1 1
v 6 5 -1 1 1 1 1
v 6 5 0 1 1 1 1
v 6 4 -1 1 1 1 1
v 6 4 0 1 1 1 1
v 6 3 -1 1 1 1 1
v 6 3 0 1 1 1 1
v 6 2 -1 1 1 1 1
v 6 2 0 1 1 1 1
v 6 1 -1 1 1 1 1
v 6 1 0 1 1 1 1
v 6 0 -1 1 1 1 1
v 6 0 0 1 1 1 1
v 6 -1 -1 1 1 1 1
v 6 -1 0 1 1 1 1
v 6 -2 -1 1 1 1 1
v 6 -2 0 1 1 1 1
v 6 -3 -1 1 1 1 1
v 6 -3 0 1 1 1 1
v 7 -2 0 1 1 1 1
v 7 -3 0 1 1 1 1
v 7 -1 0 1 1 1 1
v 7 0 0 1 1 1 1
v 7 1 0 1 1 1 1
v 7 2 0 1 1 1 1
v 7 3 0 1 1 1 1
v 7 4 0 1 1 1 1
v 7 5 0 1 1 1 1
v 7 6 0 1 1 1 1
v 7 7 0 1 1 1 1
v 7 5 -1 1 1 1 1
v 7 4 -1 1 1 1 1
v 7 3 -1 1 1 1 1
v 7 2 -1 1 1 1 1
v 7 1 -1 1 1 1 1
v 7 0 -1 1 1 1 1
v 7 -1 -1 1 1 1 1
v 7 -2 -1 1 1 1 1
v 7 -3 -1 1 1 1 1
v 2 -2 0 1 1 1 1
v 2 -3 0 1 1 1 1
v 3 -2 0 1 1 1 1
v 3 -3 0 1 1 1 1
v 4 -2 0 1 1 1 1
v 4 -3 0 1 1 1 1
v 5 -2 0 1 1 1 1
v 5 -3 0 1 1 1 1
v 5 -2 -1 1 1 1 1
v 5 -3 -1 1 1 1 1
v 4 -2 -1 1 1 1 1
v 4 -3 -1 1 1 1 1
v 3 -2 -1 1 1 1 1
v 3 -3 -1 1 1 1 1
v 2 -2 -1 1 1 1 1
v 2 -3 -1 1 1 1 1
vt 0.06875 0.8812500000000001
vt 0.11875000000000001 0.93125
vt 0.06875 0.93125
vt 0.11875000000000001 0.8812500000000001
vt 0.06875 0.7562500000000001
vt 0.11875000000000001 0.80625
vt 0.06875 0.80625
vt 0.11875000000000001 0.7562500000000001
vt 0.06875 0.8187500000000001
vt 0.11875000000000001 0.8687500000000001
vt 0.06875 0.8687500000000001
vt 0.11875000000000001 0.8187500000000001
vt 0.06875 0.94375
vt 0.11875000000000001 0.99375
vt 0.06875 0.99375
vt 0.11875000000000001 0.94375
vt 0.13125 0.94375
vt 0.18125000000000002 0.99375
vt 0.13125 0.99375
vt 0.18125000000000002 0.94375
vt 0.19375000000000003 0.94375
vt 0.24375000000000002 0.99375
vt 0.19375000000000003 0.99375
vt 0.24375000000000002 0.94375
vt 0.06875 0.6937500000000001
vt 0.11875000000000001 0.7437500000000001
vt 0.06875 0.7437500000000001
vt 0.11875000000000001 0.6937500000000001
vt 0.13125 0.63125
vt 0.18125000000000002 0.68125
vt 0.13125 0.68125
vt 0.18125000000000002 0.63125
vt 0.13125 0.8187500000000001
vt 0.18125000000000002 0.8687500000000001
vt 0.13125 0.8687500000000001
vt 0.18125000000000002 0.8187500000000001
vt 0.13125 0.8812500000000001
vt 0.18125000000000002 0.93125
vt 0.13125 0.93125
vt 0.18125000000000002 0.8812500000000001
vt 0.13125 0.6937500000000001
vt 0.18125000000000002 0.7437500000000001
vt 0.13125 0.7437500000000001
vt 0.18125000000000002 0.6937500000000001
vt 0.13125 0.7562500000000001
vt 0.18125000000000002 0.80625
vt 0.13125 0.80625
vt 0.18125000000000002 0.7562500000000001
vn 0 0 1
vn -1 0 0
vn 1 0 0
vn 0 0 -1
vn 0 1 0
vn 0 -1 0
g Scene
usemtl 0
f 1/1/1 2/2/1 3/3/1
f 1/1/1 4/4/1 2/2/1
f 5/5/2 6/6/2 7/7/2
f 5/5/2 8/8/2 6/6/2
f 9/9/2 10/10/2 11/11/2
f 9/9/2 12/12/2 10/10/2
f 7/9/2 12/10/2 9/11/2
f 7/9/2 6/12/2 12/10/2
f 11/9/2 13/10/2 14/11/2
f 11/9/2 10/12/2 13/10/2
f 14/9/2 15/10/2 16/11/2
f 14/9/2 13/12/2 15/10/2
f 16/13/2 17/14/2 18/15/2
f 16/13/2 15/16/2 17/14/2
f 15/17/1 19/18/1 17/19/1
f 15/17/1 20/20/1 19/18/1
f 20/17/1 21/18/1 19/19/1
f 20/17/1 22/20/1 21/18/1
f 23/13/3 24/14/3 25/15/3
f 23/13/3 26/16/3 24/14/3
f 22/21/1 27/22/1 21/23/1
f 22/21/1 28/24/1 27/22/1
f 29/17/1 30/18/1 31/19/1
f 29/17/1 32/20/1 30/18/1
f 32/17/1 25/18/1 30/19/1
f 32/17/1 23/20/1 25/18/1
f 8/1/1 33/2/1 6/3/1
f 8/1/1 34/4/1 33/2/1
f 13/1/1 20/2/1 15/3/1
f 13/1/1 35/4/1 20/2/1
f 10/1/1 35/2/1 13/3/1
f 10/1/1 36/4/1 35/2/1
f 12/1/1 36/2/1 10/3/1
f 12/1/1 37/4/1 36/2/1
f 6/1/1 37/2/1 12/3/1
f 6/1/1 33/4/1 37/2/1
f 38/1/1 34/2/1 8/3/1
f 38/1/1 39/4/1 34/2/1
f 3/1/1 39/2/1 38/3/1
f 3/1/1 2/4/1 39/2/1
f 40/1/2 8/2/2 5/3/2
f 40/1/2 38/4/2 8/2/2
f 41/1/2 38/2/2 40/3/2
f 41/1/2 3/4/2 38/2/2
f 42/1/2 3/2/2 41/3/2
f 42/1/2 1/4/2 3/2/2
f 43/25/2 1/26/2 42/27/2
f 43/25/2 44/28/2 1/26/2
f 44/25/1 4/26/1 1/27/1
f 44/25/1 45/28/1 4/26/1
f 46/25/4 42/26/4 47/27/4
f 46/25/4 43/28/4 42/26/4
f 47/5/4 41/6/4 48/7/4
f 47/5/4 42/8/4 41/6/4
f 48/5/4 40/6/4 49/7/4
f 48/5/4 41/8/4 40/6/4
f 49/5/4 5/6/4 50/7/4
f 49/5/4 40/8/4 5/6/4
f 51/5/4 9/6/4 52/7/4
f 51/5/4 7/8/4 9/6/4
f 50/5/4 7/6/4 51/7/4
f 50/5/4 5/8/4 7/6/4
f 52/5/4 11/6/4 53/7/4
f 52/5/4 9/8/4 11/6/4
f 53/5/4 14/6/4 54/7/4
f 53/5/4 11/8/4 14/6/4
f 54/5/4 16/6/4 55/7/4
f 54/5/4 14/8/4 16/6/4
f 55/17/4 18/18/4 56/19/4
f 55/17/4 16/20/4 18/18/4
f 57/17/4 56/18/4 58/19/4
f 57/17/4 55/20/4 56/18/4
f 59/21/4 60/22/4 61/23/4
f 59/21/4 62/24/4 60/22/4
f 28/21/1 31/22/1 27/23/1
f 28/21/1 29/24/1 31/22/1
f 63/17/4 24/18/4 64/19/4
f 63/17/4 26/20/4 24/18/4
f 17/29/5 56/30/5 18/31/5
f 17/29/5 19/32/5 56/30/5
f 19/29/5 58/30/5 56/31/5
f 19/29/5 21/32/5 58/30/5
f 21/29/5 60/30/5 58/31/5
f 21/29/5 27/32/5 60/30/5
f 27/29/5 61/30/5 60/31/5
f 27/29/5 31/32/5 61/30/5
f 31/29/5 65/30/5 61/31/5
f 31/29/5 30/32/5 65/30/5
f 30/29/5 24/30/5 65/31/5
f 30/29/5 25/32/5 24/30/5
f 26/17/4 65/18/4 24/19/4
f 26/17/4 66/20/4 65/18/4
f 62/21/4 58/22/4 60/23/4
f 62/21/4 57/24/4 58/22/4
f 35/33/3 55/34/3 20/35/3
f 35/33/3 54/36/3 55/34/3
f 36/33/3 54/34/3 35/35/3
f 36/33/3 53/36/3 54/34/3
f 37/33/3 53/34/3 36/35/3
f 37/33/3 52/36/3 53/34/3
f 33/33/3 52/34/3 37/35/3
f 33/33/3 51/36/3 52/34/3
f 34/33/3 51/34/3 33/35/3
f 34/33/3 50/36/3 51/34/3
f 39/33/3 50/34/3 34/35/3
f 39/33/3 49/36/3 50/34/3
f 2/33/3 49/34/3 39/35/3
f 2/33/3 48/36/3 49/34/3
f 4/33/3 48/34/3 2/35/3
f 4/33/3 47/36/3 48/34/3
f 45/33/3 47/34/3 4/35/3
f 45/33/3 46/36/3 47/34/3
f 20/33/6 57/34/6 22/35/6
f 20/33/6 55/36/6 57/34/6
f 22/33/6 62/34/6 28/35/6
f 22/33/6 57/36/6 62/34/6
f 28/33/6 59/34/6 29/35/6
f 28/33/6 62/36/6 59/34/6
f 29/33/6 66/34/6 32/35/6
f 29/33/6 59/36/6 66/34/6
f 66/37/6 23/38/6 32/39/6
f 66/37/6 26/40/6 23/38/6
f 67/33/2 23/34/2 26/35/2
f 67/33/2 68/36/2 23/34/2
f 69/33/2 68/34/2 67/35/2
f 69/33/2 70/36/2 68/34/2
f 71/33/2 70/34/2 69/35/2
f 71/33/2 72/36/2 70/34/2
f 73/33/2 72/34/2 71/35/2
f 73/33/2 74/36/2 72/34/2
f 75/33/2 74/34/2 73/35/2
f 75/33/2 76/36/2 74/34/2
f 77/33/2 76/34/2 75/35/2
f 77/33/2 78/36/2 76/34/2
f 79/33/2 78/34/2 77/35/2
f 79/33/2 80/36/2 78/34/2
f 81/33/2 80/34/2 79/35/2
f 81/33/2 82/36/2 80/34/2
f 83/33/2 82/34/2 81/35/2
f 83/33/2 84/36/2 82/34/2
f 84/25/1 85/26/1 82/27/1
f 84/25/1 86/28/1 85/26/1
f 82/5/1 87/6/1 80/7/1
f 82/5/1 85/8/1 87/6/1
f 80/5/1 88/6/1 78/7/1
f 80/5/1 87/8/1 88/6/1
f 78/5/1 89/6/1 76/7/1
f 78/5/1 88/8/1 89/6/1
f 76/5/1 90/6/1 74/7/1
f 76/5/1 89/8/1 90/6/1
f 74/5/1 91/6/1 72/7/1
f 74/5/1 90/8/1 91/6/1
f 72/5/1 92/6/1 70/7/1
f 72/5/1 91/8/1 92/6/1
f 70/5/1 93/6/1 68/7/1
f 70/5/1 92/8/1 93/6/1
f 68/5/1 94/6/1 23/7/1
f 68/5/1 93/8/1 94/6/1
f 23/17/1 95/18/1 25/19/1
f 23/17/1 94/20/1 95/18/1
f 94/13/3 64/14/3 95/15/3
f 94/13/3 63/16/3 64/14/3
f 93/9/3 63/10/3 94/11/3
f 93/9/3 96/12/3 63/10/3
f 92/9/3 96/10/3 93/11/3
f 92/9/3 97/12/3 96/10/3
f 91/9/3 97/10/3 92/11/3
f 91/9/3 98/12/3 97/10/3
f 90/9/3 98/10/3 91/11/3
f 90/9/3 99/12/3 98/10/3
f 89/9/3 99/10/3 90/11/3
f 89/9/3 100/12/3 99/10/3
f 88/9/3 100/10/3 89/11/3
f 88/9/3 101/12/3 100/10/3
f 87/9/3 101/10/3 88/11/3
f 87/9/3 102/12/3 101/10/3
f 85/9/3 102/10/3 87/11/3
f 85/9/3 103/12/3 102/10/3
f 86/25/3 103/26/3 85/27/3
f 86/25/3 104/28/3 103/26/3
f 104/25/4 81/26/4 103/27/4
f 104/25/4 83/28/4 81/26/4
f 103/5/4 79/6/4 102/7/4
f 103/5/4 81/8/4 79/6/4
f 102/5/4 77/6/4 101/7/4
f 102/5/4 79/8/4 77/6/4
f 101/5/4 75/6/4 100/7/4
f 101/5/4 77/8/4 75/6/4
f 100/5/4 73/6/4 99/7/4
f 100/5/4 75/8/4 73/6/4
f 99/5/4 71/6/4 98/7/4
f 99/5/4 73/8/4 71/6/4
f 98/5/4 69/6/4 97/7/4
f 98/5/4 71/8/4 69/6/4
f 97/5/4 67/6/4 96/7/4
f 97/5/4 69/8/4 67/6/4
f 96/5/4 26/6/4 63/7/4
f 96/5/4 67/8/4 26/6/4
f 66/21/4 61/22/4 65/23/4
f 66/21/4 59/24/4 61/22/4
f 95/29/5 24/30/5 25/31/5
f 95/29/5 64/32/5 24/30/5
f 45/41/1 105/42/1 4/43/1
f 45/41/1 106/44/1 105/42/1
f 106/41/1 107/42/1 105/43/1
f 106/41/1 108/44/1 107/42/1
f 108/41/1 109/42/1 107/43/1
f 108/41/1 110/44/1 109/42/1
f 110/41/1 111/42/1 109/43/1
f 110/41/1 112/44/1 111/42/1
f 112/41/1 82/42/1 111/43/1
f 112/41/1 84/44/1 82/42/1
f 83/41/4 113/42/4 81/43/4
f 83/41/4 114/44/4 113/42/4
f 114/41/4 115/42/4 113/43/4
f 114/41/4 116/44/4 115/42/4
f 116/41/4 117/42/4 115/43/4
f 116/41/4 118/44/4 117/42/4
f 118/41/4 119/42/4 117/43/4
f 118/41/4 120/44/4 119/42/4
f 120/41/4 47/42/4 119/43/4
f 120/41/4 46/44/4 47/42/4
f 81/45/5 111/46/5 82/47/5
f 81/45/5 113/48/5 111/46/5
f 119/45/5 4/46/5 105/47/5
f 119/45/5 47/48/5 4/46/5
f 113/45/5 109/46/5 111/47/5
f 113/45/5 115/48/5 109/46/5
f 115/45/5 107/46/5 109/47/5
f 115/45/5 117/48/5 107/46/5
f 117/45/5 105/46/5 107/47/5
f 117/45/5 119/48/5 105/46/5
f 43/29/6 45/30/6 44/31/6
f 43/29/6 46/32/6 45/30/6
f 46/29/6 106/30/6 45/31/6
f 46/29/6 120/32/6 106/30/6
f 120/29/6 108/30/6 106/31/6
f 120/29/6 118/32/6 108/30/6
f 118/29/6 110/30/6 108/31/6
f 118/29/6 116/32/6 110/30/6
f 116/29/6 112/30/6 110/31/6
f 116/29/6 114/32/6 112/30/6
f 114/29/6 84/30/6 112/31/6
f 114/29/6 83/32/6 84/30/6
f 83/29/6 86/30/6 84/31/6
f 83/29/6 104/32/6 86/30/6
