mtllib RopeSegment.mtl
o Default
v -0.8125 1 -0.125 1 1 1 1
v 0 2 0 1 1 1 1
v -0.8125 2 -0.125 1 1 1 1
v 0 1 0 1 1 1 1
v -0.8125 0 -0.125 1 1 1 1
v 0 0 0 1 1 1 1
v -0.8125 -1 -0.125 1 1 1 1
v 0 -1 0 1 1 1 1
v -0.8125 -2 -0.125 1 1 1 1
v 0 -2 0 1 1 1 1
v -0.8125 -3 -0.125 1 1 1 1
v 0 -3 0 1 1 1 1
v -0.8125 -4 -0.125 1 1 1 1
v 0 -4 0 1 1 1 1
v -0.8125 -5 -0.125 1 1 1 1
v 0 -5 0 1 1 1 1
v 0 3 0 1 1 1 1
v -0.8125 3 -0.125 1 1 1 1
v 0 4 0 1 1 1 1
v -0.8125 4 -0.125 1 1 1 1
v -1 3 -1 1 1 1 1
v -1 4 -1 1 1 1 1
v -1 2 -1 1 1 1 1
v -1 1 -1 1 1 1 1
v -1 0 -1 1 1 1 1
v -1 -1 -1 1 1 1 1
v -1 -2 -1 1 1 1 1
v -1 -3 -1 1 1 1 1
v -1 -4 -1 1 1 1 1
v -1 -5 -1 1 1 1 1
v -0.1875 4 -0.8125 1 1 1 1
v -0.1875 3 -0.8125 1 1 1 1
v -0.1875 2 -0.8125 1 1 1 1
v -0.1875 1 -0.8125 1 1 1 1
v -0.1875 0 -0.8125 1 1 1 1
v -0.1875 -4 -0.8125 1 1 1 1
v -0.1875 -5 -0.8125 1 1 1 1
v -0.1875 -3 -0.8125 1 1 1 1
v -0.1875 -1 -0.8125 1 1 1 1
v -0.1875 -2 -0.8125 1 1 1 1
vt 0.44375000000000003 0.94375
vt 0.49375 0.99375
vt 0.44375000000000003 0.99375
vt 0.49375 0.94375
vt 0.5062500000000001 0.94375
vt 0.55625 0.99375
vt 0.5062500000000001 0.99375
vt 0.55625 0.94375
vn -0.68614476 0 0.72746503
vn -0.15205718 0 0.9883717
vn -0.50581017 0 0.86264481
vn -0.83162722 0 0.55533429
vn -0.97780241 0 0.20952909
vn 0.9743912 0 -0.22485951
vn 0.83646113 0 -0.54802626
vn 0.70710678 0 -0.70710678
vn 0.54802626 0 -0.83646113
vn 0.22485951 0 -0.9743912
g Scene
usemtl 0
f 1/1/1 2/2/2 3/3/1
f 1/1/1 4/4/2 2/2/2
f 5/1/1 4/2/2 1/3/1
f 5/1/1 6/4/2 4/2/2
f 7/1/1 6/2/2 5/3/1
f 7/1/1 8/4/2 6/2/2
f 9/1/1 8/2/2 7/3/1
f 9/1/1 10/4/2 8/2/2
f 11/1/1 10/2/2 9/3/1
f 11/1/1 12/4/2 10/2/2
f 13/1/1 12/2/2 11/3/1
f 13/1/1 14/4/2 12/2/2
f 15/1/3 14/2/2 13/3/1
f 15/1/3 16/4/2 14/2/2
f 3/1/1 17/2/2 18/3/1
f 3/1/1 2/4/2 17/2/2
f 18/1/1 19/2/2 20/3/4
f 18/1/1 17/4/2 19/2/2
f 21/1/5 20/2/4 22/3/5
f 21/1/5 18/4/1 20/2/4
f 23/1/5 18/2/1 21/3/5
f 23/1/5 3/4/1 18/2/1
f 24/1/5 3/2/1 23/3/5
f 24/1/5 1/4/1 3/2/1
f 25/1/5 1/2/1 24/3/5
f 25/1/5 5/4/1 1/2/1
f 26/1/5 5/2/1 25/3/5
f 26/1/5 7/4/1 5/2/1
f 27/1/5 7/2/1 26/3/5
f 27/1/5 9/4/1 7/2/1
f 28/1/5 9/2/1 27/3/5
f 28/1/5 11/4/1 9/2/1
f 29/1/5 11/2/1 28/3/5
f 29/1/5 13/4/1 11/2/1
f 30/1/5 13/2/1 29/3/5
f 30/1/5 15/4/3 13/2/1
f 17/5/6 31/6/7 19/7/6
f 17/5/6 32/8/8 31/6/7
f 2/5/6 32/6/8 17/7/6
f 2/5/6 33/8/8 32/6/8
f 4/5/6 33/6/8 2/7/6
f 4/5/6 34/8/8 33/6/8
f 6/5/6 34/6/8 4/7/6
f 6/5/6 35/8/8 34/6/8
f 16/5/6 36/6/8 14/7/6
f 16/5/6 37/8/9 36/6/8
f 14/5/6 38/6/8 12/7/6
f 14/5/6 36/8/8 38/6/8
f 10/5/6 39/6/8 8/7/6
f 10/5/6 40/8/8 39/6/8
f 8/5/6 35/6/8 6/7/6
f 8/5/6 39/8/8 35/6/8
f 12/5/6 40/6/8 10/7/6
f 12/5/6 38/8/8 40/6/8
f 32/5/8 22/6/10 31/7/7
f 32/5/8 21/8/10 22/6/10
f 33/5/8 21/6/10 32/7/8
f 33/5/8 23/8/10 21/6/10
f 34/5/8 23/6/10 33/7/8
f 34/5/8 24/8/10 23/6/10
f 35/5/8 24/6/10 34/7/8
f 35/5/8 25/8/10 24/6/10
f 39/5/8 25/6/10 35/7/8
f 39/5/8 26/8/10 25/6/10
f 40/5/8 26/6/10 39/7/8
f 40/5/8 27/8/10 26/6/10
f 38/5/8 27/6/10 40/7/8
f 38/5/8 28/8/10 27/6/10
f 36/5/8 28/6/10 38/7/8
f 36/5/8 29/8/10 28/6/10
f 37/5/9 29/6/10 36/7/8
f 37/5/9 30/8/10 29/6/10
